<svg width="1152" height="700" viewBox="0 0 1152 700" fill="none" xmlns="http://www.w3.org/2000/svg">
<rect width="1152" height="700" fill="black"/>
<path d="M73.8633 120.75L77.1211 110.32H78.5508L78.2695 112.395L74.9531 123H73.5586L73.8633 120.75ZM71.6719 110.32L74.4492 120.867L74.6484 123H73.1836L69.5039 110.32H71.6719ZM81.668 120.785L84.3164 110.32H86.4727L82.793 123H81.3398L81.668 120.785ZM78.8672 110.32L82.0547 120.574L82.418 123H81.0352L77.625 112.371L77.3438 110.32H78.8672ZM93.9609 123.234C93.0781 123.234 92.2773 123.086 91.5586 122.789C90.8477 122.484 90.2344 122.059 89.7188 121.512C89.2109 120.965 88.8203 120.316 88.5469 119.566C88.2734 118.816 88.1367 117.996 88.1367 117.105V116.613C88.1367 115.582 88.2891 114.664 88.5938 113.859C88.8984 113.047 89.3125 112.359 89.8359 111.797C90.3594 111.234 90.9531 110.809 91.6172 110.52C92.2812 110.23 92.9688 110.086 93.6797 110.086C94.5859 110.086 95.3672 110.242 96.0234 110.555C96.6875 110.867 97.2305 111.305 97.6523 111.867C98.0742 112.422 98.3867 113.078 98.5898 113.836C98.793 114.586 98.8945 115.406 98.8945 116.297V117.27H89.4258V115.5H96.7266V115.336C96.6953 114.773 96.5781 114.227 96.375 113.695C96.1797 113.164 95.8672 112.727 95.4375 112.383C95.0078 112.039 94.4219 111.867 93.6797 111.867C93.1875 111.867 92.7344 111.973 92.3203 112.184C91.9062 112.387 91.5508 112.691 91.2539 113.098C90.957 113.504 90.7266 114 90.5625 114.586C90.3984 115.172 90.3164 115.848 90.3164 116.613V117.105C90.3164 117.707 90.3984 118.273 90.5625 118.805C90.7344 119.328 90.9805 119.789 91.3008 120.188C91.6289 120.586 92.0234 120.898 92.4844 121.125C92.9531 121.352 93.4844 121.465 94.0781 121.465C94.8438 121.465 95.4922 121.309 96.0234 120.996C96.5547 120.684 97.0195 120.266 97.418 119.742L98.7305 120.785C98.457 121.199 98.1094 121.594 97.6875 121.969C97.2656 122.344 96.7461 122.648 96.1289 122.883C95.5195 123.117 94.7969 123.234 93.9609 123.234ZM103.781 105V123H101.602V105H103.781ZM112.336 121.453C112.852 121.453 113.328 121.348 113.766 121.137C114.203 120.926 114.562 120.637 114.844 120.27C115.125 119.895 115.285 119.469 115.324 118.992H117.387C117.348 119.742 117.094 120.441 116.625 121.09C116.164 121.73 115.559 122.25 114.809 122.648C114.059 123.039 113.234 123.234 112.336 123.234C111.383 123.234 110.551 123.066 109.84 122.73C109.137 122.395 108.551 121.934 108.082 121.348C107.621 120.762 107.273 120.09 107.039 119.332C106.812 118.566 106.699 117.758 106.699 116.906V116.414C106.699 115.562 106.812 114.758 107.039 114C107.273 113.234 107.621 112.559 108.082 111.973C108.551 111.387 109.137 110.926 109.84 110.59C110.551 110.254 111.383 110.086 112.336 110.086C113.328 110.086 114.195 110.289 114.938 110.695C115.68 111.094 116.262 111.641 116.684 112.336C117.113 113.023 117.348 113.805 117.387 114.68H115.324C115.285 114.156 115.137 113.684 114.879 113.262C114.629 112.84 114.285 112.504 113.848 112.254C113.418 111.996 112.914 111.867 112.336 111.867C111.672 111.867 111.113 112 110.66 112.266C110.215 112.523 109.859 112.875 109.594 113.32C109.336 113.758 109.148 114.246 109.031 114.785C108.922 115.316 108.867 115.859 108.867 116.414V116.906C108.867 117.461 108.922 118.008 109.031 118.547C109.141 119.086 109.324 119.574 109.582 120.012C109.848 120.449 110.203 120.801 110.648 121.066C111.102 121.324 111.664 121.453 112.336 121.453ZM119.25 116.801V116.531C119.25 115.617 119.383 114.77 119.648 113.988C119.914 113.199 120.297 112.516 120.797 111.938C121.297 111.352 121.902 110.898 122.613 110.578C123.324 110.25 124.121 110.086 125.004 110.086C125.895 110.086 126.695 110.25 127.406 110.578C128.125 110.898 128.734 111.352 129.234 111.938C129.742 112.516 130.129 113.199 130.395 113.988C130.66 114.77 130.793 115.617 130.793 116.531V116.801C130.793 117.715 130.66 118.562 130.395 119.344C130.129 120.125 129.742 120.809 129.234 121.395C128.734 121.973 128.129 122.426 127.418 122.754C126.715 123.074 125.918 123.234 125.027 123.234C124.137 123.234 123.336 123.074 122.625 122.754C121.914 122.426 121.305 121.973 120.797 121.395C120.297 120.809 119.914 120.125 119.648 119.344C119.383 118.562 119.25 117.715 119.25 116.801ZM121.418 116.531V116.801C121.418 117.434 121.492 118.031 121.641 118.594C121.789 119.148 122.012 119.641 122.309 120.07C122.613 120.5 122.992 120.84 123.445 121.09C123.898 121.332 124.426 121.453 125.027 121.453C125.621 121.453 126.141 121.332 126.586 121.09C127.039 120.84 127.414 120.5 127.711 120.07C128.008 119.641 128.23 119.148 128.379 118.594C128.535 118.031 128.613 117.434 128.613 116.801V116.531C128.613 115.906 128.535 115.316 128.379 114.762C128.23 114.199 128.004 113.703 127.699 113.273C127.402 112.836 127.027 112.492 126.574 112.242C126.129 111.992 125.605 111.867 125.004 111.867C124.41 111.867 123.887 111.992 123.434 112.242C122.988 112.492 122.613 112.836 122.309 113.273C122.012 113.703 121.789 114.199 121.641 114.762C121.492 115.316 121.418 115.906 121.418 116.531ZM135.668 112.84V123H133.488V110.32H135.551L135.668 112.84ZM135.223 116.18L134.215 116.145C134.223 115.277 134.336 114.477 134.555 113.742C134.773 113 135.098 112.355 135.527 111.809C135.957 111.262 136.492 110.84 137.133 110.543C137.773 110.238 138.516 110.086 139.359 110.086C139.953 110.086 140.5 110.172 141 110.344C141.5 110.508 141.934 110.77 142.301 111.129C142.668 111.488 142.953 111.949 143.156 112.512C143.359 113.074 143.461 113.754 143.461 114.551V123H141.293V114.656C141.293 113.992 141.18 113.461 140.953 113.062C140.734 112.664 140.422 112.375 140.016 112.195C139.609 112.008 139.133 111.914 138.586 111.914C137.945 111.914 137.41 112.027 136.98 112.254C136.551 112.48 136.207 112.793 135.949 113.191C135.691 113.59 135.504 114.047 135.387 114.562C135.277 115.07 135.223 115.609 135.223 116.18ZM143.438 114.984L141.984 115.43C141.992 114.734 142.105 114.066 142.324 113.426C142.551 112.785 142.875 112.215 143.297 111.715C143.727 111.215 144.254 110.82 144.879 110.531C145.504 110.234 146.219 110.086 147.023 110.086C147.703 110.086 148.305 110.176 148.828 110.355C149.359 110.535 149.805 110.812 150.164 111.188C150.531 111.555 150.809 112.027 150.996 112.605C151.184 113.184 151.277 113.871 151.277 114.668V123H149.098V114.645C149.098 113.934 148.984 113.383 148.758 112.992C148.539 112.594 148.227 112.316 147.82 112.16C147.422 111.996 146.945 111.914 146.391 111.914C145.914 111.914 145.492 111.996 145.125 112.16C144.758 112.324 144.449 112.551 144.199 112.84C143.949 113.121 143.758 113.445 143.625 113.812C143.5 114.18 143.438 114.57 143.438 114.984ZM159.82 123.234C158.938 123.234 158.137 123.086 157.418 122.789C156.707 122.484 156.094 122.059 155.578 121.512C155.07 120.965 154.68 120.316 154.406 119.566C154.133 118.816 153.996 117.996 153.996 117.105V116.613C153.996 115.582 154.148 114.664 154.453 113.859C154.758 113.047 155.172 112.359 155.695 111.797C156.219 111.234 156.812 110.809 157.477 110.52C158.141 110.23 158.828 110.086 159.539 110.086C160.445 110.086 161.227 110.242 161.883 110.555C162.547 110.867 163.09 111.305 163.512 111.867C163.934 112.422 164.246 113.078 164.449 113.836C164.652 114.586 164.754 115.406 164.754 116.297V117.27H155.285V115.5H162.586V115.336C162.555 114.773 162.438 114.227 162.234 113.695C162.039 113.164 161.727 112.727 161.297 112.383C160.867 112.039 160.281 111.867 159.539 111.867C159.047 111.867 158.594 111.973 158.18 112.184C157.766 112.387 157.41 112.691 157.113 113.098C156.816 113.504 156.586 114 156.422 114.586C156.258 115.172 156.176 115.848 156.176 116.613V117.105C156.176 117.707 156.258 118.273 156.422 118.805C156.594 119.328 156.84 119.789 157.16 120.188C157.488 120.586 157.883 120.898 158.344 121.125C158.812 121.352 159.344 121.465 159.938 121.465C160.703 121.465 161.352 121.309 161.883 120.996C162.414 120.684 162.879 120.266 163.277 119.742L164.59 120.785C164.316 121.199 163.969 121.594 163.547 121.969C163.125 122.344 162.605 122.648 161.988 122.883C161.379 123.117 160.656 123.234 159.82 123.234ZM178.547 110.32V111.984H171.691V110.32H178.547ZM174.012 107.238H176.18V119.859C176.18 120.289 176.246 120.613 176.379 120.832C176.512 121.051 176.684 121.195 176.895 121.266C177.105 121.336 177.332 121.371 177.574 121.371C177.754 121.371 177.941 121.355 178.137 121.324C178.34 121.285 178.492 121.254 178.594 121.23L178.605 123C178.434 123.055 178.207 123.105 177.926 123.152C177.652 123.207 177.32 123.234 176.93 123.234C176.398 123.234 175.91 123.129 175.465 122.918C175.02 122.707 174.664 122.355 174.398 121.863C174.141 121.363 174.012 120.691 174.012 119.848V107.238ZM180.281 116.801V116.531C180.281 115.617 180.414 114.77 180.68 113.988C180.945 113.199 181.328 112.516 181.828 111.938C182.328 111.352 182.934 110.898 183.645 110.578C184.355 110.25 185.152 110.086 186.035 110.086C186.926 110.086 187.727 110.25 188.438 110.578C189.156 110.898 189.766 111.352 190.266 111.938C190.773 112.516 191.16 113.199 191.426 113.988C191.691 114.77 191.824 115.617 191.824 116.531V116.801C191.824 117.715 191.691 118.562 191.426 119.344C191.16 120.125 190.773 120.809 190.266 121.395C189.766 121.973 189.16 122.426 188.449 122.754C187.746 123.074 186.949 123.234 186.059 123.234C185.168 123.234 184.367 123.074 183.656 122.754C182.945 122.426 182.336 121.973 181.828 121.395C181.328 120.809 180.945 120.125 180.68 119.344C180.414 118.562 180.281 117.715 180.281 116.801ZM182.449 116.531V116.801C182.449 117.434 182.523 118.031 182.672 118.594C182.82 119.148 183.043 119.641 183.34 120.07C183.645 120.5 184.023 120.84 184.477 121.09C184.93 121.332 185.457 121.453 186.059 121.453C186.652 121.453 187.172 121.332 187.617 121.09C188.07 120.84 188.445 120.5 188.742 120.07C189.039 119.641 189.262 119.148 189.41 118.594C189.566 118.031 189.645 117.434 189.645 116.801V116.531C189.645 115.906 189.566 115.316 189.41 114.762C189.262 114.199 189.035 113.703 188.73 113.273C188.434 112.836 188.059 112.492 187.605 112.242C187.16 111.992 186.637 111.867 186.035 111.867C185.441 111.867 184.918 111.992 184.465 112.242C184.02 112.492 183.645 112.836 183.34 113.273C183.043 113.703 182.82 114.199 182.672 114.762C182.523 115.316 182.449 115.906 182.449 116.531ZM73.3125 211.203V210.125C73.3125 206.469 73.8438 203.078 74.9062 199.953C75.9688 196.797 77.5 194.062 79.5 191.75C81.5 189.406 83.9219 187.594 86.7656 186.312C89.6094 185 92.7969 184.344 96.3281 184.344C99.8906 184.344 103.094 185 105.938 186.312C108.812 187.594 111.25 189.406 113.25 191.75C115.281 194.062 116.828 196.797 117.891 199.953C118.953 203.078 119.484 206.469 119.484 210.125V211.203C119.484 214.859 118.953 218.25 117.891 221.375C116.828 224.5 115.281 227.234 113.25 229.578C111.25 231.891 108.828 233.703 105.984 235.016C103.172 236.297 99.9844 236.938 96.4219 236.938C92.8594 236.938 89.6562 236.297 86.8125 235.016C83.9688 233.703 81.5312 231.891 79.5 229.578C77.5 227.234 75.9688 224.5 74.9062 221.375C73.8438 218.25 73.3125 214.859 73.3125 211.203ZM81.9844 210.125V211.203C81.9844 213.734 82.2812 216.125 82.875 218.375C83.4688 220.594 84.3594 222.562 85.5469 224.281C86.7656 226 88.2812 227.359 90.0938 228.359C91.9062 229.328 94.0156 229.812 96.4219 229.812C98.7969 229.812 100.875 229.328 102.656 228.359C104.469 227.359 105.969 226 107.156 224.281C108.344 222.562 109.234 220.594 109.828 218.375C110.453 216.125 110.766 213.734 110.766 211.203V210.125C110.766 207.625 110.453 205.266 109.828 203.047C109.234 200.797 108.328 198.812 107.109 197.094C105.922 195.344 104.422 193.969 102.609 192.969C100.828 191.969 98.7344 191.469 96.3281 191.469C93.9531 191.469 91.8594 191.969 90.0469 192.969C88.2656 193.969 86.7656 195.344 85.5469 197.094C84.3594 198.812 83.4688 200.797 82.875 203.047C82.2812 205.266 81.9844 207.625 81.9844 210.125ZM139.031 193.25V236H130.359V185.281H138.797L139.031 193.25ZM154.875 185L154.828 193.062C154.109 192.906 153.422 192.812 152.766 192.781C152.141 192.719 151.422 192.688 150.609 192.688C148.609 192.688 146.844 193 145.312 193.625C143.781 194.25 142.484 195.125 141.422 196.25C140.359 197.375 139.516 198.719 138.891 200.281C138.297 201.812 137.906 203.5 137.719 205.344L135.281 206.75C135.281 203.688 135.578 200.812 136.172 198.125C136.797 195.438 137.75 193.062 139.031 191C140.312 188.906 141.938 187.281 143.906 186.125C145.906 184.938 148.281 184.344 151.031 184.344C151.656 184.344 152.375 184.422 153.188 184.578C154 184.703 154.562 184.844 154.875 185ZM194.812 185.281H202.688V234.922C202.688 239.391 201.781 243.203 199.969 246.359C198.156 249.516 195.625 251.906 192.375 253.531C189.156 255.188 185.438 256.016 181.219 256.016C179.469 256.016 177.406 255.734 175.031 255.172C172.688 254.641 170.375 253.719 168.094 252.406C165.844 251.125 163.953 249.391 162.422 247.203L166.969 242.047C169.094 244.609 171.312 246.391 173.625 247.391C175.969 248.391 178.281 248.891 180.562 248.891C183.312 248.891 185.688 248.375 187.688 247.344C189.688 246.312 191.234 244.781 192.328 242.75C193.453 240.75 194.016 238.281 194.016 235.344V196.438L194.812 185.281ZM159.891 211.203V210.219C159.891 206.344 160.344 202.828 161.25 199.672C162.188 196.484 163.516 193.75 165.234 191.469C166.984 189.188 169.094 187.438 171.562 186.219C174.031 184.969 176.812 184.344 179.906 184.344C183.094 184.344 185.875 184.906 188.25 186.031C190.656 187.125 192.688 188.734 194.344 190.859C196.031 192.953 197.359 195.484 198.328 198.453C199.297 201.422 199.969 204.781 200.344 208.531V212.844C200 216.562 199.328 219.906 198.328 222.875C197.359 225.844 196.031 228.375 194.344 230.469C192.688 232.562 190.656 234.172 188.25 235.297C185.844 236.391 183.031 236.938 179.812 236.938C176.781 236.938 174.031 236.297 171.562 235.016C169.125 233.734 167.031 231.938 165.281 229.625C163.531 227.312 162.188 224.594 161.25 221.469C160.344 218.312 159.891 214.891 159.891 211.203ZM168.562 210.219V211.203C168.562 213.734 168.812 216.109 169.312 218.328C169.844 220.547 170.641 222.5 171.703 224.188C172.797 225.875 174.188 227.203 175.875 228.172C177.562 229.109 179.578 229.578 181.922 229.578C184.797 229.578 187.172 228.969 189.047 227.75C190.922 226.531 192.406 224.922 193.5 222.922C194.625 220.922 195.5 218.75 196.125 216.406V205.109C195.781 203.391 195.25 201.734 194.531 200.141C193.844 198.516 192.938 197.078 191.812 195.828C190.719 194.547 189.359 193.531 187.734 192.781C186.109 192.031 184.203 191.656 182.016 191.656C179.641 191.656 177.594 192.156 175.875 193.156C174.188 194.125 172.797 195.469 171.703 197.188C170.641 198.875 169.844 200.844 169.312 203.094C168.812 205.312 168.562 207.688 168.562 210.219ZM245.766 227.328V201.219C245.766 199.219 245.359 197.484 244.547 196.016C243.766 194.516 242.578 193.359 240.984 192.547C239.391 191.734 237.422 191.328 235.078 191.328C232.891 191.328 230.969 191.703 229.312 192.453C227.688 193.203 226.406 194.188 225.469 195.406C224.562 196.625 224.109 197.938 224.109 199.344H215.438C215.438 197.531 215.906 195.734 216.844 193.953C217.781 192.172 219.125 190.562 220.875 189.125C222.656 187.656 224.781 186.5 227.25 185.656C229.75 184.781 232.531 184.344 235.594 184.344C239.281 184.344 242.531 184.969 245.344 186.219C248.188 187.469 250.406 189.359 252 191.891C253.625 194.391 254.438 197.531 254.438 201.312V224.938C254.438 226.625 254.578 228.422 254.859 230.328C255.172 232.234 255.625 233.875 256.219 235.25V236H247.172C246.734 235 246.391 233.672 246.141 232.016C245.891 230.328 245.766 228.766 245.766 227.328ZM247.266 205.25L247.359 211.344H238.594C236.125 211.344 233.922 211.547 231.984 211.953C230.047 212.328 228.422 212.906 227.109 213.688C225.797 214.469 224.797 215.453 224.109 216.641C223.422 217.797 223.078 219.156 223.078 220.719C223.078 222.312 223.438 223.766 224.156 225.078C224.875 226.391 225.953 227.438 227.391 228.219C228.859 228.969 230.656 229.344 232.781 229.344C235.438 229.344 237.781 228.781 239.812 227.656C241.844 226.531 243.453 225.156 244.641 223.531C245.859 221.906 246.516 220.328 246.609 218.797L250.312 222.969C250.094 224.281 249.5 225.734 248.531 227.328C247.562 228.922 246.266 230.453 244.641 231.922C243.047 233.359 241.141 234.562 238.922 235.531C236.734 236.469 234.266 236.938 231.516 236.938C228.078 236.938 225.062 236.266 222.469 234.922C219.906 233.578 217.906 231.781 216.469 229.531C215.062 227.25 214.359 224.703 214.359 221.891C214.359 219.172 214.891 216.781 215.953 214.719C217.016 212.625 218.547 210.891 220.547 209.516C222.547 208.109 224.953 207.047 227.766 206.328C230.578 205.609 233.719 205.25 237.188 205.25H247.266ZM276.75 196.109V236H268.078V185.281H276.281L276.75 196.109ZM274.688 208.719L271.078 208.578C271.109 205.109 271.625 201.906 272.625 198.969C273.625 196 275.031 193.422 276.844 191.234C278.656 189.047 280.812 187.359 283.312 186.172C285.844 184.953 288.641 184.344 291.703 184.344C294.203 184.344 296.453 184.688 298.453 185.375C300.453 186.031 302.156 187.094 303.562 188.562C305 190.031 306.094 191.938 306.844 194.281C307.594 196.594 307.969 199.422 307.969 202.766V236H299.25V202.672C299.25 200.016 298.859 197.891 298.078 196.297C297.297 194.672 296.156 193.5 294.656 192.781C293.156 192.031 291.312 191.656 289.125 191.656C286.969 191.656 285 192.109 283.219 193.016C281.469 193.922 279.953 195.172 278.672 196.766C277.422 198.359 276.438 200.188 275.719 202.25C275.031 204.281 274.688 206.438 274.688 208.719ZM342.188 236.938C338.656 236.938 335.453 236.344 332.578 235.156C329.734 233.938 327.281 232.234 325.219 230.047C323.188 227.859 321.625 225.266 320.531 222.266C319.438 219.266 318.891 215.984 318.891 212.422V210.453C318.891 206.328 319.5 202.656 320.719 199.438C321.938 196.188 323.594 193.438 325.688 191.188C327.781 188.938 330.156 187.234 332.812 186.078C335.469 184.922 338.219 184.344 341.062 184.344C344.688 184.344 347.812 184.969 350.438 186.219C353.094 187.469 355.266 189.219 356.953 191.469C358.641 193.688 359.891 196.312 360.703 199.344C361.516 202.344 361.922 205.625 361.922 209.188V213.078H324.047V206H353.25V205.344C353.125 203.094 352.656 200.906 351.844 198.781C351.062 196.656 349.812 194.906 348.094 193.531C346.375 192.156 344.031 191.469 341.062 191.469C339.094 191.469 337.281 191.891 335.625 192.734C333.969 193.547 332.547 194.766 331.359 196.391C330.172 198.016 329.25 200 328.594 202.344C327.938 204.688 327.609 207.391 327.609 210.453V212.422C327.609 214.828 327.938 217.094 328.594 219.219C329.281 221.312 330.266 223.156 331.547 224.75C332.859 226.344 334.438 227.594 336.281 228.5C338.156 229.406 340.281 229.859 342.656 229.859C345.719 229.859 348.312 229.234 350.438 227.984C352.562 226.734 354.422 225.062 356.016 222.969L361.266 227.141C360.172 228.797 358.781 230.375 357.094 231.875C355.406 233.375 353.328 234.594 350.859 235.531C348.422 236.469 345.531 236.938 342.188 236.938ZM381.469 164V236H372.75V164H381.469ZM404.812 164V236H396.094V164H404.812ZM439.781 236.938C436.25 236.938 433.047 236.344 430.172 235.156C427.328 233.938 424.875 232.234 422.812 230.047C420.781 227.859 419.219 225.266 418.125 222.266C417.031 219.266 416.484 215.984 416.484 212.422V210.453C416.484 206.328 417.094 202.656 418.312 199.438C419.531 196.188 421.188 193.438 423.281 191.188C425.375 188.938 427.75 187.234 430.406 186.078C433.062 184.922 435.812 184.344 438.656 184.344C442.281 184.344 445.406 184.969 448.031 186.219C450.688 187.469 452.859 189.219 454.547 191.469C456.234 193.688 457.484 196.312 458.297 199.344C459.109 202.344 459.516 205.625 459.516 209.188V213.078H421.641V206H450.844V205.344C450.719 203.094 450.25 200.906 449.438 198.781C448.656 196.656 447.406 194.906 445.688 193.531C443.969 192.156 441.625 191.469 438.656 191.469C436.688 191.469 434.875 191.891 433.219 192.734C431.562 193.547 430.141 194.766 428.953 196.391C427.766 198.016 426.844 200 426.188 202.344C425.531 204.688 425.203 207.391 425.203 210.453V212.422C425.203 214.828 425.531 217.094 426.188 219.219C426.875 221.312 427.859 223.156 429.141 224.75C430.453 226.344 432.031 227.594 433.875 228.5C435.75 229.406 437.875 229.859 440.25 229.859C443.312 229.859 445.906 229.234 448.031 227.984C450.156 226.734 452.016 225.062 453.609 222.969L458.859 227.141C457.766 228.797 456.375 230.375 454.688 231.875C453 233.375 450.922 234.594 448.453 235.531C446.016 236.469 443.125 236.938 439.781 236.938ZM75.9609 279.32V280.984H69.1055V279.32H75.9609ZM71.4258 276.238H73.5938V288.859C73.5938 289.289 73.6602 289.613 73.793 289.832C73.9258 290.051 74.0977 290.195 74.3086 290.266C74.5195 290.336 74.7461 290.371 74.9883 290.371C75.168 290.371 75.3555 290.355 75.5508 290.324C75.7539 290.285 75.9062 290.254 76.0078 290.23L76.0195 292C75.8477 292.055 75.6211 292.105 75.3398 292.152C75.0664 292.207 74.7344 292.234 74.3438 292.234C73.8125 292.234 73.3242 292.129 72.8789 291.918C72.4336 291.707 72.0781 291.355 71.8125 290.863C71.5547 290.363 71.4258 289.691 71.4258 288.848V276.238ZM80.6719 274V292H78.5039V274H80.6719ZM80.1562 285.18L79.2539 285.145C79.2617 284.277 79.3906 283.477 79.6406 282.742C79.8906 282 80.2422 281.355 80.6953 280.809C81.1484 280.262 81.6875 279.84 82.3125 279.543C82.9453 279.238 83.6445 279.086 84.4102 279.086C85.0352 279.086 85.5977 279.172 86.0977 279.344C86.5977 279.508 87.0234 279.773 87.375 280.141C87.7344 280.508 88.0078 280.984 88.1953 281.57C88.3828 282.148 88.4766 282.855 88.4766 283.691V292H86.2969V283.668C86.2969 283.004 86.1992 282.473 86.0039 282.074C85.8086 281.668 85.5234 281.375 85.1484 281.195C84.7734 281.008 84.3125 280.914 83.7656 280.914C83.2266 280.914 82.7344 281.027 82.2891 281.254C81.8516 281.48 81.4727 281.793 81.1523 282.191C80.8398 282.59 80.5938 283.047 80.4141 283.562C80.2422 284.07 80.1562 284.609 80.1562 285.18ZM96.9844 292.234C96.1016 292.234 95.3008 292.086 94.582 291.789C93.8711 291.484 93.2578 291.059 92.7422 290.512C92.2344 289.965 91.8438 289.316 91.5703 288.566C91.2969 287.816 91.1602 286.996 91.1602 286.105V285.613C91.1602 284.582 91.3125 283.664 91.6172 282.859C91.9219 282.047 92.3359 281.359 92.8594 280.797C93.3828 280.234 93.9766 279.809 94.6406 279.52C95.3047 279.23 95.9922 279.086 96.7031 279.086C97.6094 279.086 98.3906 279.242 99.0469 279.555C99.7109 279.867 100.254 280.305 100.676 280.867C101.098 281.422 101.41 282.078 101.613 282.836C101.816 283.586 101.918 284.406 101.918 285.297V286.27H92.4492V284.5H99.75V284.336C99.7188 283.773 99.6016 283.227 99.3984 282.695C99.2031 282.164 98.8906 281.727 98.4609 281.383C98.0312 281.039 97.4453 280.867 96.7031 280.867C96.2109 280.867 95.7578 280.973 95.3438 281.184C94.9297 281.387 94.5742 281.691 94.2773 282.098C93.9805 282.504 93.75 283 93.5859 283.586C93.4219 284.172 93.3398 284.848 93.3398 285.613V286.105C93.3398 286.707 93.4219 287.273 93.5859 287.805C93.7578 288.328 94.0039 288.789 94.3242 289.188C94.6523 289.586 95.0469 289.898 95.5078 290.125C95.9766 290.352 96.5078 290.465 97.1016 290.465C97.8672 290.465 98.5156 290.309 99.0469 289.996C99.5781 289.684 100.043 289.266 100.441 288.742L101.754 289.785C101.48 290.199 101.133 290.594 100.711 290.969C100.289 291.344 99.7695 291.648 99.1523 291.883C98.543 292.117 97.8203 292.234 96.9844 292.234ZM112.57 282.027V292H110.402V279.32H112.453L112.57 282.027ZM112.055 285.18L111.152 285.145C111.16 284.277 111.289 283.477 111.539 282.742C111.789 282 112.141 281.355 112.594 280.809C113.047 280.262 113.586 279.84 114.211 279.543C114.844 279.238 115.543 279.086 116.309 279.086C116.934 279.086 117.496 279.172 117.996 279.344C118.496 279.508 118.922 279.773 119.273 280.141C119.633 280.508 119.906 280.984 120.094 281.57C120.281 282.148 120.375 282.855 120.375 283.691V292H118.195V283.668C118.195 283.004 118.098 282.473 117.902 282.074C117.707 281.668 117.422 281.375 117.047 281.195C116.672 281.008 116.211 280.914 115.664 280.914C115.125 280.914 114.633 281.027 114.188 281.254C113.75 281.48 113.371 281.793 113.051 282.191C112.738 282.59 112.492 283.047 112.312 283.562C112.141 284.07 112.055 284.609 112.055 285.18ZM128.93 292.234C128.047 292.234 127.246 292.086 126.527 291.789C125.816 291.484 125.203 291.059 124.688 290.512C124.18 289.965 123.789 289.316 123.516 288.566C123.242 287.816 123.105 286.996 123.105 286.105V285.613C123.105 284.582 123.258 283.664 123.562 282.859C123.867 282.047 124.281 281.359 124.805 280.797C125.328 280.234 125.922 279.809 126.586 279.52C127.25 279.23 127.938 279.086 128.648 279.086C129.555 279.086 130.336 279.242 130.992 279.555C131.656 279.867 132.199 280.305 132.621 280.867C133.043 281.422 133.355 282.078 133.559 282.836C133.762 283.586 133.863 284.406 133.863 285.297V286.27H124.395V284.5H131.695V284.336C131.664 283.773 131.547 283.227 131.344 282.695C131.148 282.164 130.836 281.727 130.406 281.383C129.977 281.039 129.391 280.867 128.648 280.867C128.156 280.867 127.703 280.973 127.289 281.184C126.875 281.387 126.52 281.691 126.223 282.098C125.926 282.504 125.695 283 125.531 283.586C125.367 284.172 125.285 284.848 125.285 285.613V286.105C125.285 286.707 125.367 287.273 125.531 287.805C125.703 288.328 125.949 288.789 126.27 289.188C126.598 289.586 126.992 289.898 127.453 290.125C127.922 290.352 128.453 290.465 129.047 290.465C129.812 290.465 130.461 290.309 130.992 289.996C131.523 289.684 131.988 289.266 132.387 288.742L133.699 289.785C133.426 290.199 133.078 290.594 132.656 290.969C132.234 291.344 131.715 291.648 131.098 291.883C130.488 292.117 129.766 292.234 128.93 292.234ZM137.859 279.32L140.637 283.938L143.449 279.32H145.992L141.844 285.578L146.121 292H143.613L140.684 287.242L137.754 292H135.234L139.5 285.578L135.363 279.32H137.859ZM153.609 279.32V280.984H146.754V279.32H153.609ZM149.074 276.238H151.242V288.859C151.242 289.289 151.309 289.613 151.441 289.832C151.574 290.051 151.746 290.195 151.957 290.266C152.168 290.336 152.395 290.371 152.637 290.371C152.816 290.371 153.004 290.355 153.199 290.324C153.402 290.285 153.555 290.254 153.656 290.23L153.668 292C153.496 292.055 153.27 292.105 152.988 292.152C152.715 292.207 152.383 292.234 151.992 292.234C151.461 292.234 150.973 292.129 150.527 291.918C150.082 291.707 149.727 291.355 149.461 290.863C149.203 290.363 149.074 289.691 149.074 288.848V276.238ZM160.664 283.855V285.637H154.945V283.855H160.664ZM171 279.32H172.969V291.73C172.969 292.848 172.742 293.801 172.289 294.59C171.836 295.379 171.203 295.977 170.391 296.383C169.586 296.797 168.656 297.004 167.602 297.004C167.164 297.004 166.648 296.934 166.055 296.793C165.469 296.66 164.891 296.43 164.32 296.102C163.758 295.781 163.285 295.348 162.902 294.801L164.039 293.512C164.57 294.152 165.125 294.598 165.703 294.848C166.289 295.098 166.867 295.223 167.438 295.223C168.125 295.223 168.719 295.094 169.219 294.836C169.719 294.578 170.105 294.195 170.379 293.688C170.66 293.188 170.801 292.57 170.801 291.836V282.109L171 279.32ZM162.27 285.801V285.555C162.27 284.586 162.383 283.707 162.609 282.918C162.844 282.121 163.176 281.438 163.605 280.867C164.043 280.297 164.57 279.859 165.188 279.555C165.805 279.242 166.5 279.086 167.273 279.086C168.07 279.086 168.766 279.227 169.359 279.508C169.961 279.781 170.469 280.184 170.883 280.715C171.305 281.238 171.637 281.871 171.879 282.613C172.121 283.355 172.289 284.195 172.383 285.133V286.211C172.297 287.141 172.129 287.977 171.879 288.719C171.637 289.461 171.305 290.094 170.883 290.617C170.469 291.141 169.961 291.543 169.359 291.824C168.758 292.098 168.055 292.234 167.25 292.234C166.492 292.234 165.805 292.074 165.188 291.754C164.578 291.434 164.055 290.984 163.617 290.406C163.18 289.828 162.844 289.148 162.609 288.367C162.383 287.578 162.27 286.723 162.27 285.801ZM164.438 285.555V285.801C164.438 286.434 164.5 287.027 164.625 287.582C164.758 288.137 164.957 288.625 165.223 289.047C165.496 289.469 165.844 289.801 166.266 290.043C166.688 290.277 167.191 290.395 167.777 290.395C168.496 290.395 169.09 290.242 169.559 289.938C170.027 289.633 170.398 289.23 170.672 288.73C170.953 288.23 171.172 287.688 171.328 287.102V284.277C171.242 283.848 171.109 283.434 170.93 283.035C170.758 282.629 170.531 282.27 170.25 281.957C169.977 281.637 169.637 281.383 169.23 281.195C168.824 281.008 168.348 280.914 167.801 280.914C167.207 280.914 166.695 281.039 166.266 281.289C165.844 281.531 165.496 281.867 165.223 282.297C164.957 282.719 164.758 283.211 164.625 283.773C164.5 284.328 164.438 284.922 164.438 285.555ZM181.523 292.234C180.641 292.234 179.84 292.086 179.121 291.789C178.41 291.484 177.797 291.059 177.281 290.512C176.773 289.965 176.383 289.316 176.109 288.566C175.836 287.816 175.699 286.996 175.699 286.105V285.613C175.699 284.582 175.852 283.664 176.156 282.859C176.461 282.047 176.875 281.359 177.398 280.797C177.922 280.234 178.516 279.809 179.18 279.52C179.844 279.23 180.531 279.086 181.242 279.086C182.148 279.086 182.93 279.242 183.586 279.555C184.25 279.867 184.793 280.305 185.215 280.867C185.637 281.422 185.949 282.078 186.152 282.836C186.355 283.586 186.457 284.406 186.457 285.297V286.27H176.988V284.5H184.289V284.336C184.258 283.773 184.141 283.227 183.938 282.695C183.742 282.164 183.43 281.727 183 281.383C182.57 281.039 181.984 280.867 181.242 280.867C180.75 280.867 180.297 280.973 179.883 281.184C179.469 281.387 179.113 281.691 178.816 282.098C178.52 282.504 178.289 283 178.125 283.586C177.961 284.172 177.879 284.848 177.879 285.613V286.105C177.879 286.707 177.961 287.273 178.125 287.805C178.297 288.328 178.543 288.789 178.863 289.188C179.191 289.586 179.586 289.898 180.047 290.125C180.516 290.352 181.047 290.465 181.641 290.465C182.406 290.465 183.055 290.309 183.586 289.996C184.117 289.684 184.582 289.266 184.98 288.742L186.293 289.785C186.02 290.199 185.672 290.594 185.25 290.969C184.828 291.344 184.309 291.648 183.691 291.883C183.082 292.117 182.359 292.234 181.523 292.234ZM191.156 282.027V292H188.988V279.32H191.039L191.156 282.027ZM190.641 285.18L189.738 285.145C189.746 284.277 189.875 283.477 190.125 282.742C190.375 282 190.727 281.355 191.18 280.809C191.633 280.262 192.172 279.84 192.797 279.543C193.43 279.238 194.129 279.086 194.895 279.086C195.52 279.086 196.082 279.172 196.582 279.344C197.082 279.508 197.508 279.773 197.859 280.141C198.219 280.508 198.492 280.984 198.68 281.57C198.867 282.148 198.961 282.855 198.961 283.691V292H196.781V283.668C196.781 283.004 196.684 282.473 196.488 282.074C196.293 281.668 196.008 281.375 195.633 281.195C195.258 281.008 194.797 280.914 194.25 280.914C193.711 280.914 193.219 281.027 192.773 281.254C192.336 281.48 191.957 281.793 191.637 282.191C191.324 282.59 191.078 283.047 190.898 283.562C190.727 284.07 190.641 284.609 190.641 285.18ZM211.418 289.75L214.676 279.32H216.105L215.824 281.395L212.508 292H211.113L211.418 289.75ZM209.227 279.32L212.004 289.867L212.203 292H210.738L207.059 279.32H209.227ZM219.223 289.785L221.871 279.32H224.027L220.348 292H218.895L219.223 289.785ZM216.422 279.32L219.609 289.574L219.973 292H218.59L215.18 281.371L214.898 279.32H216.422ZM231.516 292.234C230.633 292.234 229.832 292.086 229.113 291.789C228.402 291.484 227.789 291.059 227.273 290.512C226.766 289.965 226.375 289.316 226.102 288.566C225.828 287.816 225.691 286.996 225.691 286.105V285.613C225.691 284.582 225.844 283.664 226.148 282.859C226.453 282.047 226.867 281.359 227.391 280.797C227.914 280.234 228.508 279.809 229.172 279.52C229.836 279.23 230.523 279.086 231.234 279.086C232.141 279.086 232.922 279.242 233.578 279.555C234.242 279.867 234.785 280.305 235.207 280.867C235.629 281.422 235.941 282.078 236.145 282.836C236.348 283.586 236.449 284.406 236.449 285.297V286.27H226.98V284.5H234.281V284.336C234.25 283.773 234.133 283.227 233.93 282.695C233.734 282.164 233.422 281.727 232.992 281.383C232.562 281.039 231.977 280.867 231.234 280.867C230.742 280.867 230.289 280.973 229.875 281.184C229.461 281.387 229.105 281.691 228.809 282.098C228.512 282.504 228.281 283 228.117 283.586C227.953 284.172 227.871 284.848 227.871 285.613V286.105C227.871 286.707 227.953 287.273 228.117 287.805C228.289 288.328 228.535 288.789 228.855 289.188C229.184 289.586 229.578 289.898 230.039 290.125C230.508 290.352 231.039 290.465 231.633 290.465C232.398 290.465 233.047 290.309 233.578 289.996C234.109 289.684 234.574 289.266 234.973 288.742L236.285 289.785C236.012 290.199 235.664 290.594 235.242 290.969C234.82 291.344 234.301 291.648 233.684 291.883C233.074 292.117 232.352 292.234 231.516 292.234ZM238.969 274H241.148V289.539L240.961 292H238.969V274ZM249.715 285.555V285.801C249.715 286.723 249.605 287.578 249.387 288.367C249.168 289.148 248.848 289.828 248.426 290.406C248.004 290.984 247.488 291.434 246.879 291.754C246.27 292.074 245.57 292.234 244.781 292.234C243.977 292.234 243.27 292.098 242.66 291.824C242.059 291.543 241.551 291.141 241.137 290.617C240.723 290.094 240.391 289.461 240.141 288.719C239.898 287.977 239.73 287.141 239.637 286.211V285.133C239.73 284.195 239.898 283.355 240.141 282.613C240.391 281.871 240.723 281.238 241.137 280.715C241.551 280.184 242.059 279.781 242.66 279.508C243.262 279.227 243.961 279.086 244.758 279.086C245.555 279.086 246.262 279.242 246.879 279.555C247.496 279.859 248.012 280.297 248.426 280.867C248.848 281.438 249.168 282.121 249.387 282.918C249.605 283.707 249.715 284.586 249.715 285.555ZM247.535 285.801V285.555C247.535 284.922 247.477 284.328 247.359 283.773C247.242 283.211 247.055 282.719 246.797 282.297C246.539 281.867 246.199 281.531 245.777 281.289C245.355 281.039 244.836 280.914 244.219 280.914C243.672 280.914 243.195 281.008 242.789 281.195C242.391 281.383 242.051 281.637 241.77 281.957C241.488 282.27 241.258 282.629 241.078 283.035C240.906 283.434 240.777 283.848 240.691 284.277V287.102C240.816 287.648 241.02 288.176 241.301 288.684C241.59 289.184 241.973 289.594 242.449 289.914C242.934 290.234 243.531 290.395 244.242 290.395C244.828 290.395 245.328 290.277 245.742 290.043C246.164 289.801 246.504 289.469 246.762 289.047C247.027 288.625 247.223 288.137 247.348 287.582C247.473 287.027 247.535 286.434 247.535 285.801ZM263.484 290.453C264 290.453 264.477 290.348 264.914 290.137C265.352 289.926 265.711 289.637 265.992 289.27C266.273 288.895 266.434 288.469 266.473 287.992H268.535C268.496 288.742 268.242 289.441 267.773 290.09C267.312 290.73 266.707 291.25 265.957 291.648C265.207 292.039 264.383 292.234 263.484 292.234C262.531 292.234 261.699 292.066 260.988 291.73C260.285 291.395 259.699 290.934 259.23 290.348C258.77 289.762 258.422 289.09 258.188 288.332C257.961 287.566 257.848 286.758 257.848 285.906V285.414C257.848 284.562 257.961 283.758 258.188 283C258.422 282.234 258.77 281.559 259.23 280.973C259.699 280.387 260.285 279.926 260.988 279.59C261.699 279.254 262.531 279.086 263.484 279.086C264.477 279.086 265.344 279.289 266.086 279.695C266.828 280.094 267.41 280.641 267.832 281.336C268.262 282.023 268.496 282.805 268.535 283.68H266.473C266.434 283.156 266.285 282.684 266.027 282.262C265.777 281.84 265.434 281.504 264.996 281.254C264.566 280.996 264.062 280.867 263.484 280.867C262.82 280.867 262.262 281 261.809 281.266C261.363 281.523 261.008 281.875 260.742 282.32C260.484 282.758 260.297 283.246 260.18 283.785C260.07 284.316 260.016 284.859 260.016 285.414V285.906C260.016 286.461 260.07 287.008 260.18 287.547C260.289 288.086 260.473 288.574 260.73 289.012C260.996 289.449 261.352 289.801 261.797 290.066C262.25 290.324 262.812 290.453 263.484 290.453ZM273.328 274V292H271.148V274H273.328ZM284.285 289.832V283.305C284.285 282.805 284.184 282.371 283.98 282.004C283.785 281.629 283.488 281.34 283.09 281.137C282.691 280.934 282.199 280.832 281.613 280.832C281.066 280.832 280.586 280.926 280.172 281.113C279.766 281.301 279.445 281.547 279.211 281.852C278.984 282.156 278.871 282.484 278.871 282.836H276.703C276.703 282.383 276.82 281.934 277.055 281.488C277.289 281.043 277.625 280.641 278.062 280.281C278.508 279.914 279.039 279.625 279.656 279.414C280.281 279.195 280.977 279.086 281.742 279.086C282.664 279.086 283.477 279.242 284.18 279.555C284.891 279.867 285.445 280.34 285.844 280.973C286.25 281.598 286.453 282.383 286.453 283.328V289.234C286.453 289.656 286.488 290.105 286.559 290.582C286.637 291.059 286.75 291.469 286.898 291.812V292H284.637C284.527 291.75 284.441 291.418 284.379 291.004C284.316 290.582 284.285 290.191 284.285 289.832ZM284.66 284.312L284.684 285.836H282.492C281.875 285.836 281.324 285.887 280.84 285.988C280.355 286.082 279.949 286.227 279.621 286.422C279.293 286.617 279.043 286.863 278.871 287.16C278.699 287.449 278.613 287.789 278.613 288.18C278.613 288.578 278.703 288.941 278.883 289.27C279.062 289.598 279.332 289.859 279.691 290.055C280.059 290.242 280.508 290.336 281.039 290.336C281.703 290.336 282.289 290.195 282.797 289.914C283.305 289.633 283.707 289.289 284.004 288.883C284.309 288.477 284.473 288.082 284.496 287.699L285.422 288.742C285.367 289.07 285.219 289.434 284.977 289.832C284.734 290.23 284.41 290.613 284.004 290.98C283.605 291.34 283.129 291.641 282.574 291.883C282.027 292.117 281.41 292.234 280.723 292.234C279.863 292.234 279.109 292.066 278.461 291.73C277.82 291.395 277.32 290.945 276.961 290.383C276.609 289.812 276.434 289.176 276.434 288.473C276.434 287.793 276.566 287.195 276.832 286.68C277.098 286.156 277.48 285.723 277.98 285.379C278.48 285.027 279.082 284.762 279.785 284.582C280.488 284.402 281.273 284.312 282.141 284.312H284.66ZM297.246 288.637C297.246 288.324 297.176 288.035 297.035 287.77C296.902 287.496 296.625 287.25 296.203 287.031C295.789 286.805 295.164 286.609 294.328 286.445C293.625 286.297 292.988 286.121 292.418 285.918C291.855 285.715 291.375 285.469 290.977 285.18C290.586 284.891 290.285 284.551 290.074 284.16C289.863 283.77 289.758 283.312 289.758 282.789C289.758 282.289 289.867 281.816 290.086 281.371C290.312 280.926 290.629 280.531 291.035 280.188C291.449 279.844 291.945 279.574 292.523 279.379C293.102 279.184 293.746 279.086 294.457 279.086C295.473 279.086 296.34 279.266 297.059 279.625C297.777 279.984 298.328 280.465 298.711 281.066C299.094 281.66 299.285 282.32 299.285 283.047H297.117C297.117 282.695 297.012 282.355 296.801 282.027C296.598 281.691 296.297 281.414 295.898 281.195C295.508 280.977 295.027 280.867 294.457 280.867C293.855 280.867 293.367 280.961 292.992 281.148C292.625 281.328 292.355 281.559 292.184 281.84C292.02 282.121 291.938 282.418 291.938 282.73C291.938 282.965 291.977 283.176 292.055 283.363C292.141 283.543 292.289 283.711 292.5 283.867C292.711 284.016 293.008 284.156 293.391 284.289C293.773 284.422 294.262 284.555 294.855 284.688C295.895 284.922 296.75 285.203 297.422 285.531C298.094 285.859 298.594 286.262 298.922 286.738C299.25 287.215 299.414 287.793 299.414 288.473C299.414 289.027 299.297 289.535 299.062 289.996C298.836 290.457 298.504 290.855 298.066 291.191C297.637 291.52 297.121 291.777 296.52 291.965C295.926 292.145 295.258 292.234 294.516 292.234C293.398 292.234 292.453 292.035 291.68 291.637C290.906 291.238 290.32 290.723 289.922 290.09C289.523 289.457 289.324 288.789 289.324 288.086H291.504C291.535 288.68 291.707 289.152 292.02 289.504C292.332 289.848 292.715 290.094 293.168 290.242C293.621 290.383 294.07 290.453 294.516 290.453C295.109 290.453 295.605 290.375 296.004 290.219C296.41 290.062 296.719 289.848 296.93 289.574C297.141 289.301 297.246 288.988 297.246 288.637ZM309.645 288.637C309.645 288.324 309.574 288.035 309.434 287.77C309.301 287.496 309.023 287.25 308.602 287.031C308.188 286.805 307.562 286.609 306.727 286.445C306.023 286.297 305.387 286.121 304.816 285.918C304.254 285.715 303.773 285.469 303.375 285.18C302.984 284.891 302.684 284.551 302.473 284.16C302.262 283.77 302.156 283.312 302.156 282.789C302.156 282.289 302.266 281.816 302.484 281.371C302.711 280.926 303.027 280.531 303.434 280.188C303.848 279.844 304.344 279.574 304.922 279.379C305.5 279.184 306.145 279.086 306.855 279.086C307.871 279.086 308.738 279.266 309.457 279.625C310.176 279.984 310.727 280.465 311.109 281.066C311.492 281.66 311.684 282.32 311.684 283.047H309.516C309.516 282.695 309.41 282.355 309.199 282.027C308.996 281.691 308.695 281.414 308.297 281.195C307.906 280.977 307.426 280.867 306.855 280.867C306.254 280.867 305.766 280.961 305.391 281.148C305.023 281.328 304.754 281.559 304.582 281.84C304.418 282.121 304.336 282.418 304.336 282.73C304.336 282.965 304.375 283.176 304.453 283.363C304.539 283.543 304.688 283.711 304.898 283.867C305.109 284.016 305.406 284.156 305.789 284.289C306.172 284.422 306.66 284.555 307.254 284.688C308.293 284.922 309.148 285.203 309.82 285.531C310.492 285.859 310.992 286.262 311.32 286.738C311.648 287.215 311.812 287.793 311.812 288.473C311.812 289.027 311.695 289.535 311.461 289.996C311.234 290.457 310.902 290.855 310.465 291.191C310.035 291.52 309.52 291.777 308.918 291.965C308.324 292.145 307.656 292.234 306.914 292.234C305.797 292.234 304.852 292.035 304.078 291.637C303.305 291.238 302.719 290.723 302.32 290.09C301.922 289.457 301.723 288.789 301.723 288.086H303.902C303.934 288.68 304.105 289.152 304.418 289.504C304.73 289.848 305.113 290.094 305.566 290.242C306.02 290.383 306.469 290.453 306.914 290.453C307.508 290.453 308.004 290.375 308.402 290.219C308.809 290.062 309.117 289.848 309.328 289.574C309.539 289.301 309.645 288.988 309.645 288.637ZM320.039 285.801V285.531C320.039 284.617 320.172 283.77 320.438 282.988C320.703 282.199 321.086 281.516 321.586 280.938C322.086 280.352 322.691 279.898 323.402 279.578C324.113 279.25 324.91 279.086 325.793 279.086C326.684 279.086 327.484 279.25 328.195 279.578C328.914 279.898 329.523 280.352 330.023 280.938C330.531 281.516 330.918 282.199 331.184 282.988C331.449 283.77 331.582 284.617 331.582 285.531V285.801C331.582 286.715 331.449 287.562 331.184 288.344C330.918 289.125 330.531 289.809 330.023 290.395C329.523 290.973 328.918 291.426 328.207 291.754C327.504 292.074 326.707 292.234 325.816 292.234C324.926 292.234 324.125 292.074 323.414 291.754C322.703 291.426 322.094 290.973 321.586 290.395C321.086 289.809 320.703 289.125 320.438 288.344C320.172 287.562 320.039 286.715 320.039 285.801ZM322.207 285.531V285.801C322.207 286.434 322.281 287.031 322.43 287.594C322.578 288.148 322.801 288.641 323.098 289.07C323.402 289.5 323.781 289.84 324.234 290.09C324.688 290.332 325.215 290.453 325.816 290.453C326.41 290.453 326.93 290.332 327.375 290.09C327.828 289.84 328.203 289.5 328.5 289.07C328.797 288.641 329.02 288.148 329.168 287.594C329.324 287.031 329.402 286.434 329.402 285.801V285.531C329.402 284.906 329.324 284.316 329.168 283.762C329.02 283.199 328.793 282.703 328.488 282.273C328.191 281.836 327.816 281.492 327.363 281.242C326.918 280.992 326.395 280.867 325.793 280.867C325.199 280.867 324.676 280.992 324.223 281.242C323.777 281.492 323.402 281.836 323.098 282.273C322.801 282.703 322.578 283.199 322.43 283.762C322.281 284.316 322.207 284.906 322.207 285.531ZM336.469 281.312V292H334.301V279.32H336.41L336.469 281.312ZM340.43 279.25L340.418 281.266C340.238 281.227 340.066 281.203 339.902 281.195C339.746 281.18 339.566 281.172 339.363 281.172C338.863 281.172 338.422 281.25 338.039 281.406C337.656 281.562 337.332 281.781 337.066 282.062C336.801 282.344 336.59 282.68 336.434 283.07C336.285 283.453 336.188 283.875 336.141 284.336L335.531 284.688C335.531 283.922 335.605 283.203 335.754 282.531C335.91 281.859 336.148 281.266 336.469 280.75C336.789 280.227 337.195 279.82 337.688 279.531C338.188 279.234 338.781 279.086 339.469 279.086C339.625 279.086 339.805 279.105 340.008 279.145C340.211 279.176 340.352 279.211 340.43 279.25ZM350.414 279.32H352.383V291.73C352.383 292.848 352.156 293.801 351.703 294.59C351.25 295.379 350.617 295.977 349.805 296.383C349 296.797 348.07 297.004 347.016 297.004C346.578 297.004 346.062 296.934 345.469 296.793C344.883 296.66 344.305 296.43 343.734 296.102C343.172 295.781 342.699 295.348 342.316 294.801L343.453 293.512C343.984 294.152 344.539 294.598 345.117 294.848C345.703 295.098 346.281 295.223 346.852 295.223C347.539 295.223 348.133 295.094 348.633 294.836C349.133 294.578 349.52 294.195 349.793 293.688C350.074 293.188 350.215 292.57 350.215 291.836V282.109L350.414 279.32ZM341.684 285.801V285.555C341.684 284.586 341.797 283.707 342.023 282.918C342.258 282.121 342.59 281.438 343.02 280.867C343.457 280.297 343.984 279.859 344.602 279.555C345.219 279.242 345.914 279.086 346.688 279.086C347.484 279.086 348.18 279.227 348.773 279.508C349.375 279.781 349.883 280.184 350.297 280.715C350.719 281.238 351.051 281.871 351.293 282.613C351.535 283.355 351.703 284.195 351.797 285.133V286.211C351.711 287.141 351.543 287.977 351.293 288.719C351.051 289.461 350.719 290.094 350.297 290.617C349.883 291.141 349.375 291.543 348.773 291.824C348.172 292.098 347.469 292.234 346.664 292.234C345.906 292.234 345.219 292.074 344.602 291.754C343.992 291.434 343.469 290.984 343.031 290.406C342.594 289.828 342.258 289.148 342.023 288.367C341.797 287.578 341.684 286.723 341.684 285.801ZM343.852 285.555V285.801C343.852 286.434 343.914 287.027 344.039 287.582C344.172 288.137 344.371 288.625 344.637 289.047C344.91 289.469 345.258 289.801 345.68 290.043C346.102 290.277 346.605 290.395 347.191 290.395C347.91 290.395 348.504 290.242 348.973 289.938C349.441 289.633 349.812 289.23 350.086 288.73C350.367 288.23 350.586 287.688 350.742 287.102V284.277C350.656 283.848 350.523 283.434 350.344 283.035C350.172 282.629 349.945 282.27 349.664 281.957C349.391 281.637 349.051 281.383 348.645 281.195C348.238 281.008 347.762 280.914 347.215 280.914C346.621 280.914 346.109 281.039 345.68 281.289C345.258 281.531 344.91 281.867 344.637 282.297C344.371 282.719 344.172 283.211 344.039 283.773C343.914 284.328 343.852 284.922 343.852 285.555ZM363.152 289.832V283.305C363.152 282.805 363.051 282.371 362.848 282.004C362.652 281.629 362.355 281.34 361.957 281.137C361.559 280.934 361.066 280.832 360.48 280.832C359.934 280.832 359.453 280.926 359.039 281.113C358.633 281.301 358.312 281.547 358.078 281.852C357.852 282.156 357.738 282.484 357.738 282.836H355.57C355.57 282.383 355.688 281.934 355.922 281.488C356.156 281.043 356.492 280.641 356.93 280.281C357.375 279.914 357.906 279.625 358.523 279.414C359.148 279.195 359.844 279.086 360.609 279.086C361.531 279.086 362.344 279.242 363.047 279.555C363.758 279.867 364.312 280.34 364.711 280.973C365.117 281.598 365.32 282.383 365.32 283.328V289.234C365.32 289.656 365.355 290.105 365.426 290.582C365.504 291.059 365.617 291.469 365.766 291.812V292H363.504C363.395 291.75 363.309 291.418 363.246 291.004C363.184 290.582 363.152 290.191 363.152 289.832ZM363.527 284.312L363.551 285.836H361.359C360.742 285.836 360.191 285.887 359.707 285.988C359.223 286.082 358.816 286.227 358.488 286.422C358.16 286.617 357.91 286.863 357.738 287.16C357.566 287.449 357.48 287.789 357.48 288.18C357.48 288.578 357.57 288.941 357.75 289.27C357.93 289.598 358.199 289.859 358.559 290.055C358.926 290.242 359.375 290.336 359.906 290.336C360.57 290.336 361.156 290.195 361.664 289.914C362.172 289.633 362.574 289.289 362.871 288.883C363.176 288.477 363.34 288.082 363.363 287.699L364.289 288.742C364.234 289.07 364.086 289.434 363.844 289.832C363.602 290.23 363.277 290.613 362.871 290.98C362.473 291.34 361.996 291.641 361.441 291.883C360.895 292.117 360.277 292.234 359.59 292.234C358.73 292.234 357.977 292.066 357.328 291.73C356.688 291.395 356.188 290.945 355.828 290.383C355.477 289.812 355.301 289.176 355.301 288.473C355.301 287.793 355.434 287.195 355.699 286.68C355.965 286.156 356.348 285.723 356.848 285.379C357.348 285.027 357.949 284.762 358.652 284.582C359.355 284.402 360.141 284.312 361.008 284.312H363.527ZM370.898 282.027V292H368.73V279.32H370.781L370.898 282.027ZM370.383 285.18L369.48 285.145C369.488 284.277 369.617 283.477 369.867 282.742C370.117 282 370.469 281.355 370.922 280.809C371.375 280.262 371.914 279.84 372.539 279.543C373.172 279.238 373.871 279.086 374.637 279.086C375.262 279.086 375.824 279.172 376.324 279.344C376.824 279.508 377.25 279.773 377.602 280.141C377.961 280.508 378.234 280.984 378.422 281.57C378.609 282.148 378.703 282.855 378.703 283.691V292H376.523V283.668C376.523 283.004 376.426 282.473 376.23 282.074C376.035 281.668 375.75 281.375 375.375 281.195C375 281.008 374.539 280.914 373.992 280.914C373.453 280.914 372.961 281.027 372.516 281.254C372.078 281.48 371.699 281.793 371.379 282.191C371.066 282.59 370.82 283.047 370.641 283.562C370.469 284.07 370.383 284.609 370.383 285.18ZM384.352 279.32V292H382.172V279.32H384.352ZM382.008 275.957C382.008 275.605 382.113 275.309 382.324 275.066C382.543 274.824 382.863 274.703 383.285 274.703C383.699 274.703 384.016 274.824 384.234 275.066C384.461 275.309 384.574 275.605 384.574 275.957C384.574 276.293 384.461 276.582 384.234 276.824C384.016 277.059 383.699 277.176 383.285 277.176C382.863 277.176 382.543 277.059 382.324 276.824C382.113 276.582 382.008 276.293 382.008 275.957ZM397.277 290.219V292H388.055V290.219H397.277ZM396.938 280.855L388.547 292H387.223V290.406L395.555 279.32H396.938V280.855ZM395.977 279.32V281.113H387.316V279.32H395.977ZM404.812 292.234C403.93 292.234 403.129 292.086 402.41 291.789C401.699 291.484 401.086 291.059 400.57 290.512C400.062 289.965 399.672 289.316 399.398 288.566C399.125 287.816 398.988 286.996 398.988 286.105V285.613C398.988 284.582 399.141 283.664 399.445 282.859C399.75 282.047 400.164 281.359 400.688 280.797C401.211 280.234 401.805 279.809 402.469 279.52C403.133 279.23 403.82 279.086 404.531 279.086C405.438 279.086 406.219 279.242 406.875 279.555C407.539 279.867 408.082 280.305 408.504 280.867C408.926 281.422 409.238 282.078 409.441 282.836C409.645 283.586 409.746 284.406 409.746 285.297V286.27H400.277V284.5H407.578V284.336C407.547 283.773 407.43 283.227 407.227 282.695C407.031 282.164 406.719 281.727 406.289 281.383C405.859 281.039 405.273 280.867 404.531 280.867C404.039 280.867 403.586 280.973 403.172 281.184C402.758 281.387 402.402 281.691 402.105 282.098C401.809 282.504 401.578 283 401.414 283.586C401.25 284.172 401.168 284.848 401.168 285.613V286.105C401.168 286.707 401.25 287.273 401.414 287.805C401.586 288.328 401.832 288.789 402.152 289.188C402.48 289.586 402.875 289.898 403.336 290.125C403.805 290.352 404.336 290.465 404.93 290.465C405.695 290.465 406.344 290.309 406.875 289.996C407.406 289.684 407.871 289.266 408.27 288.742L409.582 289.785C409.309 290.199 408.961 290.594 408.539 290.969C408.117 291.344 407.598 291.648 406.98 291.883C406.371 292.117 405.648 292.234 404.812 292.234ZM414.445 281.312V292H412.277V279.32H414.387L414.445 281.312ZM418.406 279.25L418.395 281.266C418.215 281.227 418.043 281.203 417.879 281.195C417.723 281.18 417.543 281.172 417.34 281.172C416.84 281.172 416.398 281.25 416.016 281.406C415.633 281.562 415.309 281.781 415.043 282.062C414.777 282.344 414.566 282.68 414.41 283.07C414.262 283.453 414.164 283.875 414.117 284.336L413.508 284.688C413.508 283.922 413.582 283.203 413.73 282.531C413.887 281.859 414.125 281.266 414.445 280.75C414.766 280.227 415.172 279.82 415.664 279.531C416.164 279.234 416.758 279.086 417.445 279.086C417.602 279.086 417.781 279.105 417.984 279.145C418.188 279.176 418.328 279.211 418.406 279.25Z" fill="white"/>
<path d="M69 359H169V397.5H69V359Z" fill="#E5E5E5"/>
<path d="M191 359H291V397.5H191V359Z" fill="#E5E5E5"/>
<path d="M214.179 378.823H211.173V384H209.477V371.203H213.713C215.154 371.203 216.262 371.531 217.035 372.188C217.814 372.844 218.204 373.799 218.204 375.053C218.204 375.85 217.987 376.544 217.554 377.136C217.126 377.728 216.528 378.17 215.761 378.463L218.767 383.895V384H216.956L214.179 378.823ZM211.173 377.443H213.766C214.604 377.443 215.269 377.227 215.761 376.793C216.259 376.359 216.508 375.779 216.508 375.053C216.508 374.262 216.271 373.655 215.796 373.233C215.327 372.812 214.647 372.598 213.757 372.592H211.173V377.443ZM224.269 384.176C222.979 384.176 221.931 383.754 221.122 382.91C220.313 382.061 219.909 380.927 219.909 379.509V379.21C219.909 378.267 220.088 377.426 220.445 376.688C220.809 375.943 221.312 375.363 221.957 374.947C222.607 374.525 223.311 374.314 224.066 374.314C225.303 374.314 226.264 374.722 226.949 375.536C227.635 376.351 227.978 377.517 227.978 379.034V379.711H221.535C221.559 380.648 221.831 381.407 222.353 381.987C222.88 382.562 223.548 382.849 224.356 382.849C224.931 382.849 225.417 382.731 225.815 382.497C226.214 382.263 226.562 381.952 226.861 381.565L227.854 382.339C227.058 383.563 225.862 384.176 224.269 384.176ZM224.066 375.65C223.41 375.65 222.859 375.891 222.414 376.371C221.969 376.846 221.693 377.514 221.588 378.375H226.352V378.252C226.305 377.426 226.082 376.787 225.684 376.336C225.285 375.879 224.746 375.65 224.066 375.65ZM229.48 379.166C229.48 377.684 229.823 376.506 230.509 375.633C231.194 374.754 232.103 374.314 233.233 374.314C234.394 374.314 235.299 374.725 235.949 375.545L236.028 374.49H237.514V383.771C237.514 385.002 237.147 385.972 236.415 386.681C235.688 387.39 234.71 387.744 233.479 387.744C232.794 387.744 232.123 387.598 231.467 387.305C230.811 387.012 230.31 386.61 229.964 386.101L230.808 385.125C231.505 385.986 232.357 386.417 233.365 386.417C234.156 386.417 234.771 386.194 235.211 385.749C235.656 385.304 235.879 384.677 235.879 383.868V383.051C235.229 383.801 234.341 384.176 233.216 384.176C232.103 384.176 231.2 383.728 230.509 382.831C229.823 381.935 229.48 380.713 229.48 379.166ZM231.115 379.351C231.115 380.423 231.335 381.267 231.774 381.882C232.214 382.491 232.829 382.796 233.62 382.796C234.646 382.796 235.398 382.33 235.879 381.398V377.057C235.381 376.148 234.634 375.694 233.638 375.694C232.847 375.694 232.229 376.002 231.783 376.617C231.338 377.232 231.115 378.144 231.115 379.351ZM241.741 384H240.115V374.49H241.741V384ZM239.983 371.968C239.983 371.704 240.062 371.481 240.221 371.3C240.385 371.118 240.625 371.027 240.941 371.027C241.258 371.027 241.498 371.118 241.662 371.3C241.826 371.481 241.908 371.704 241.908 371.968C241.908 372.231 241.826 372.451 241.662 372.627C241.498 372.803 241.258 372.891 240.941 372.891C240.625 372.891 240.385 372.803 240.221 372.627C240.062 372.451 239.983 372.231 239.983 371.968ZM249.889 381.478C249.889 381.038 249.722 380.698 249.388 380.458C249.06 380.212 248.482 380.001 247.656 379.825C246.836 379.649 246.183 379.438 245.696 379.192C245.216 378.946 244.858 378.653 244.624 378.313C244.396 377.974 244.281 377.569 244.281 377.101C244.281 376.321 244.609 375.662 245.266 375.123C245.928 374.584 246.771 374.314 247.797 374.314C248.875 374.314 249.748 374.593 250.416 375.149C251.09 375.706 251.427 376.418 251.427 377.285H249.792C249.792 376.84 249.602 376.456 249.221 376.134C248.846 375.812 248.371 375.65 247.797 375.65C247.205 375.65 246.742 375.779 246.408 376.037C246.074 376.295 245.907 376.632 245.907 377.048C245.907 377.44 246.062 377.736 246.373 377.936C246.684 378.135 247.243 378.325 248.052 378.507C248.866 378.688 249.525 378.905 250.029 379.157C250.533 379.409 250.905 379.714 251.146 380.071C251.392 380.423 251.515 380.854 251.515 381.363C251.515 382.213 251.175 382.896 250.495 383.411C249.815 383.921 248.934 384.176 247.85 384.176C247.088 384.176 246.414 384.041 245.828 383.771C245.242 383.502 244.782 383.127 244.448 382.646C244.12 382.16 243.956 381.636 243.956 381.073H245.582C245.611 381.618 245.828 382.052 246.232 382.374C246.643 382.69 247.182 382.849 247.85 382.849C248.465 382.849 248.957 382.726 249.326 382.479C249.701 382.228 249.889 381.894 249.889 381.478ZM255.839 372.188V374.49H257.614V375.747H255.839V381.645C255.839 382.025 255.918 382.312 256.076 382.506C256.234 382.693 256.504 382.787 256.885 382.787C257.072 382.787 257.33 382.752 257.658 382.682V384C257.23 384.117 256.814 384.176 256.41 384.176C255.684 384.176 255.136 383.956 254.767 383.517C254.397 383.077 254.213 382.453 254.213 381.645V375.747H252.481V374.49H254.213V372.188H255.839ZM263.468 384.176C262.179 384.176 261.13 383.754 260.321 382.91C259.513 382.061 259.108 380.927 259.108 379.509V379.21C259.108 378.267 259.287 377.426 259.645 376.688C260.008 375.943 260.512 375.363 261.156 374.947C261.807 374.525 262.51 374.314 263.266 374.314C264.502 374.314 265.463 374.722 266.148 375.536C266.834 376.351 267.177 377.517 267.177 379.034V379.711H260.734C260.758 380.648 261.03 381.407 261.552 381.987C262.079 382.562 262.747 382.849 263.556 382.849C264.13 382.849 264.616 382.731 265.015 382.497C265.413 382.263 265.762 381.952 266.061 381.565L267.054 382.339C266.257 383.563 265.062 384.176 263.468 384.176ZM263.266 375.65C262.609 375.65 262.059 375.891 261.613 376.371C261.168 376.846 260.893 377.514 260.787 378.375H265.551V378.252C265.504 377.426 265.281 376.787 264.883 376.336C264.484 375.879 263.945 375.65 263.266 375.65ZM273.663 375.949C273.417 375.908 273.15 375.888 272.863 375.888C271.797 375.888 271.073 376.342 270.692 377.25V384H269.066V374.49H270.648L270.675 375.589C271.208 374.739 271.964 374.314 272.942 374.314C273.259 374.314 273.499 374.355 273.663 374.438V375.949Z" fill="black"/>
<path d="M100.182 382.62H106.246V384H98.4854V371.203H100.182V382.62ZM107.485 379.157C107.485 378.226 107.667 377.388 108.03 376.644C108.399 375.899 108.909 375.325 109.56 374.921C110.216 374.517 110.963 374.314 111.801 374.314C113.096 374.314 114.142 374.763 114.938 375.659C115.741 376.556 116.143 377.748 116.143 379.236V379.351C116.143 380.276 115.964 381.108 115.606 381.847C115.255 382.579 114.748 383.15 114.086 383.561C113.43 383.971 112.674 384.176 111.818 384.176C110.529 384.176 109.483 383.728 108.681 382.831C107.884 381.935 107.485 380.748 107.485 379.271V379.157ZM109.12 379.351C109.12 380.405 109.363 381.252 109.85 381.891C110.342 382.529 110.998 382.849 111.818 382.849C112.645 382.849 113.301 382.526 113.787 381.882C114.273 381.231 114.517 380.323 114.517 379.157C114.517 378.114 114.268 377.271 113.77 376.626C113.277 375.976 112.621 375.65 111.801 375.65C110.998 375.65 110.351 375.97 109.858 376.608C109.366 377.247 109.12 378.161 109.12 379.351ZM117.795 379.166C117.795 377.684 118.138 376.506 118.823 375.633C119.509 374.754 120.417 374.314 121.548 374.314C122.708 374.314 123.613 374.725 124.264 375.545L124.343 374.49H125.828V383.771C125.828 385.002 125.462 385.972 124.729 386.681C124.003 387.39 123.024 387.744 121.794 387.744C121.108 387.744 120.438 387.598 119.781 387.305C119.125 387.012 118.624 386.61 118.278 386.101L119.122 385.125C119.819 385.986 120.672 386.417 121.68 386.417C122.471 386.417 123.086 386.194 123.525 385.749C123.971 385.304 124.193 384.677 124.193 383.868V383.051C123.543 383.801 122.655 384.176 121.53 384.176C120.417 384.176 119.515 383.728 118.823 382.831C118.138 381.935 117.795 380.713 117.795 379.166ZM119.43 379.351C119.43 380.423 119.649 381.267 120.089 381.882C120.528 382.491 121.144 382.796 121.935 382.796C122.96 382.796 123.713 382.33 124.193 381.398V377.057C123.695 376.148 122.948 375.694 121.952 375.694C121.161 375.694 120.543 376.002 120.098 376.617C119.652 377.232 119.43 378.144 119.43 379.351ZM130.056 384H128.43V374.49H130.056V384ZM128.298 371.968C128.298 371.704 128.377 371.481 128.535 371.3C128.699 371.118 128.939 371.027 129.256 371.027C129.572 371.027 129.812 371.118 129.977 371.3C130.141 371.481 130.223 371.704 130.223 371.968C130.223 372.231 130.141 372.451 129.977 372.627C129.812 372.803 129.572 372.891 129.256 372.891C128.939 372.891 128.699 372.803 128.535 372.627C128.377 372.451 128.298 372.231 128.298 371.968ZM134.204 374.49L134.257 375.686C134.983 374.771 135.933 374.314 137.104 374.314C139.114 374.314 140.128 375.448 140.146 377.716V384H138.52V377.707C138.514 377.021 138.355 376.515 138.045 376.187C137.74 375.858 137.263 375.694 136.612 375.694C136.085 375.694 135.622 375.835 135.224 376.116C134.825 376.397 134.515 376.767 134.292 377.224V384H132.666V374.49H134.204Z" fill="black"/>
<path d="M406 607.5L850.5 64.5L1076 465.5L345.5 356L830 320.5L1138.5 581L383.5 484.5H787L1138.5 674.5L406 607.5Z" stroke="white"/>
</svg>
